<?xml version="1.0" standalone="no"?>
<!DOCTYPE svg PUBLIC "-//W3C//DTD SVG 20010904//EN"
 "http://www.w3.org/TR/2001/REC-SVG-20010904/DTD/svg10.dtd">
<svg version="1.0" xmlns="http://www.w3.org/2000/svg"
width="24" height="24" viewBox="0 0 376.000000 330.000000"
 preserveAspectRatio="xMidYMid meet">

<g transform="translate(0.000000,330.000000) scale(0.100000,-0.100000)"
fill="#000000" stroke="none">
<path d="M545 3064 c-98 -34 -165 -130 -165 -234 1 -127 95 -227 225 -237 109
-9 212 57 245 157 l13 40 1217 0 c1187 0 1217 0 1234 19 14 15 15 24 6 40
l-11 21 -1212 0 c-667 0 -1217 4 -1223 8 -6 4 -17 25 -25 46 -20 57 -87 119
-149 139 -62 20 -101 20 -155 1z"/>
<path d="M2575 1881 c-72 -18 -154 -98 -171 -165 l-6 -26 -1018 0 c-913 0
-1020 -2 -1034 -16 -20 -20 -20 -38 0 -58 14 -14 121 -16 1034 -16 l1018 0 6
-26 c24 -94 130 -174 230 -174 98 0 199 69 229 155 l14 40 214 5 c118 3 220 9
227 13 6 5 12 19 12 32 0 13 -6 27 -12 32 -7 4 -109 10 -227 13 l-214 5 -12
34 c-15 46 -69 108 -115 131 -44 22 -130 33 -175 21z"/>
<path d="M1109 684 c-58 -17 -120 -76 -145 -137 l-19 -47 -292 0 c-252 0 -294
-2 -307 -16 -9 -8 -16 -22 -16 -29 0 -7 7 -21 16 -29 13 -14 55 -16 309 -16
l293 0 6 -23 c10 -43 65 -112 113 -142 42 -26 57 -30 124 -30 66 0 81 4 117
27 57 38 88 74 107 125 l17 43 933 0 c835 0 935 2 949 16 20 20 20 38 0 58
-14 14 -114 16 -949 16 l-933 0 -13 37 c-19 59 -93 130 -152 148 -61 18 -98
18 -158 -1z"/>
</g>
</svg>
